<?xml version="1.0" encoding="UTF-8"?>
<svg id="Capa_2" data-name="Capa 2" xmlns="http://www.w3.org/2000/svg" viewBox="0 0 343.75 326.23">
  <defs>
    <style>
      .cls-1 {
        fill: #0f7036;
      }
    </style>
  </defs>
  <g id="Vector_layer" data-name="Vector layer">
    <path class="cls-1" d="M341.49,241.7c-15.61,10.91-28.24,25.95-36.23,43.25-.94,2.04-1.81,4.11-2.62,6.2.67-19.7,4.33-39.26,10.86-57.87,2.13-6.08,4.58-12.05,7.31-17.89.61-1.3-.67-2.85-2.05-2.05-11.93,6.85-22.92,15.32-32.63,25.07-9.65,9.7-18.06,20.67-24.88,32.54-1.94,3.38-3.75,6.82-5.42,10.34,3.13-19.59,7.37-38.99,12.75-58.09,6.4-22.75,14.36-45.07,23.85-66.72,5.33-12.17,11.14-24.13,17.41-35.85.64-1.2-.77-3.02-2.05-2.05-20.66,15.65-39.23,33.96-55.21,54.37-15.97,20.41-29.37,42.79-39.69,66.56-4.05,9.33-7.62,18.86-10.71,28.54.94-13.16,2.23-26.3,3.87-39.4,2.2-17.56,5.05-35.04,8.5-52.4,3.44-17.26,7.48-34.4,12.13-51.38,4.65-16.98,9.89-33.79,15.73-50.39,5.87-16.7,12.33-33.19,19.39-49.43.86-1.98,1.73-3.96,2.61-5.93.68-1.53-1.02-3-2.36-1.82-13.04,11.6-24.68,24.67-35.01,38.72-10.36,14.11-19.37,29.2-27.18,44.86-8.12,16.26-14.95,33.13-20.79,50.33-6.4,18.85-11.61,38.09-16.11,57.47-4.44,19.09-8.2,38.33-11.76,57.6-2.25-15-3.89-30.08-4.93-45.21-1.22-17.89-1.6-35.84-1.15-53.77.45-17.93,1.75-35.84,3.87-53.64,2.13-17.91,5.12-35.71,8.94-53.33,3.79-17.53,8.41-34.88,13.85-51.97.68-2.15,1.38-4.29,2.09-6.42.45-1.36-1.56-2.64-2.51-1.46-11.78,14.73-21.79,30.81-30.01,47.78-8.22,16.95-14.71,34.73-19.64,52.91-5.12,18.89-8.52,38.2-10.53,57.66-2.23,21.6-2.73,43.35-2,65.05.56,16.72,1.86,33.41,3.65,50.05-4.99-19.32-10.21-38.58-16.24-57.6-8.28-26.14-18.07-51.9-30.75-76.25-7.08-13.6-15.07-26.72-24.08-39.12-1.03-1.42-2.99-.54-2.74,1.16,3.86,26.74,6.89,53.6,9.07,80.53,2.16,26.73,3.5,53.54,3.99,80.35.24,12.92.27,25.85.13,38.78-9.06-18.92-21.05-36.41-35.42-51.7-4.52-4.8-9.27-9.38-14.23-13.72-1.29-1.13-3.12.27-2.36,1.82,10.3,20.76,15.68,43.89,15.68,67.07,0,6.53-.43,13.04-1.27,19.51-.1.81.77,1.5,1.5,1.5h320.64c.75,0,1.21-.45,1.37-1.01.06-.15.11-.31.13-.49,1.87-21.58,2.79-43.24,4.24-64.86.38-5.63.78-11.26,1.27-16.88.1-1.1-1.36-1.92-2.26-1.3Z"/>
  </g>
</svg>