<?xml version="1.0" encoding="UTF-8"?>
<svg id="Vector_layer" data-name="Vector layer" xmlns="http://www.w3.org/2000/svg" viewBox="0 0 7000 2000">
  <defs>
    <style>
      .cls-1 {
        fill: #0f7036;
      }

      .cls-2 {
        fill: #fff;
      }

      .cls-3 {
        fill: #cbfffe;
      }

      .cls-4 {
        fill: #81c433;
      }

      .cls-5 {
        fill: #41a569;
      }

      .cls-6 {
        fill: #aad953;
      }
    </style>
  </defs>
  <rect class="cls-3" x="0" width="7000" height="2000"/>
  <ellipse class="cls-2" cx="2048.6" cy="575.57" rx="260.02" ry="228.03"/>
  <ellipse class="cls-2" cx="2355.77" cy="740.98" rx="178.35" ry="156.4"/>
  <ellipse class="cls-2" cx="2613.13" cy="631.01" rx="178.35" ry="156.4"/>
  <ellipse class="cls-2" cx="5831.41" cy="575.57" rx="260.02" ry="228.03"/>
  <ellipse class="cls-2" cx="6138.57" cy="451.46" rx="178.35" ry="156.4"/>
  <ellipse class="cls-2" cx="6346.99" cy="567.01" rx="126.34" ry="110.79"/>
  <ellipse class="cls-2" cx="557.3" cy="542.48" rx="283.95" ry="249.01"/>
  <ellipse class="cls-2" cx="787.18" cy="369.01" rx="185.77" ry="162.91"/>
  <ellipse class="cls-2" cx="984.88" cy="542.48" rx="194.76" ry="170.8"/>
  <ellipse class="cls-2" cx="194.56" cy="518.74" rx="134.88" ry="118.28"/>
  <ellipse class="cls-2" cx="338.1" cy="644.69" rx="141.41" ry="124.01"/>
  <ellipse class="cls-2" cx="4000.34" cy="635.5" rx="305.96" ry="268.31"/>
  <ellipse class="cls-2" cx="4248.04" cy="448.58" rx="200.17" ry="175.54"/>
  <ellipse class="cls-2" cx="4461.06" cy="635.5" rx="209.85" ry="184.03"/>
  <ellipse class="cls-2" cx="3577.46" cy="618.02" rx="200.17" ry="175.54"/>
  <path class="cls-5" d="M1788.58,1460.35v272.95l-1060.02,53.17L0,1812.99v-325.06c17.13,19.04,29.83,42.4,36.03,69.45,6.22-48.51,76.2-43.52,93.07-16.42,7.3-145.22,164.15-142.3,189.25-81.28-31.8-106.83,47.12-98.87,43.61-6.92,101.24-191.88,305.58-92.37,324.41,7.84,10.59-65.47,76.59-57.25,66.48,22.23,224.61-232.3,379.53-74.62,379.53-74.62,4.59-124.34,118.31-145.9,121.32,1.29,115.34-203.99,322.41-87.11,317.44,14.48,51.7-32.55,165.58-22.09,217.44,36.37Z"/>
  <path class="cls-5" d="M3377.3,1460.35v272.95l-1060.02,53.17-728.56,26.51v-325.06c17.13,19.04,29.83,42.4,36.03,69.45,6.22-48.51,76.2-43.52,93.07-16.42,7.3-145.22,164.15-142.3,189.25-81.28-31.8-106.83,47.12-98.87,43.61-6.92,101.24-191.88,305.58-92.37,324.41,7.84,10.59-65.47,76.59-57.25,66.48,22.23,224.61-232.3,379.53-74.62,379.53-74.62,4.59-124.34,118.31-145.9,121.32,1.29,115.34-203.99,322.41-87.11,317.44,14.48,51.7-32.55,165.58-22.09,217.44,36.37Z"/>
  <path class="cls-5" d="M4271.59,1460.35v272.95l-1060.02,53.17-728.56,26.51v-325.06c17.13,19.04,29.83,42.4,36.03,69.45,6.22-48.51,76.2-43.52,93.07-16.42,7.3-145.22,164.15-142.3,189.25-81.28-31.8-106.83,47.12-98.87,43.61-6.92,101.24-191.88,305.58-92.37,324.41,7.84,10.59-65.47,76.59-57.25,66.48,22.23,224.61-232.3,379.53-74.62,379.53-74.62,4.59-124.34,118.31-145.9,121.32,1.29,115.34-203.99,322.41-87.11,317.44,14.48,51.7-32.55,165.58-22.09,217.44,36.37Z"/>
  <path class="cls-5" d="M5686.67,1460.35v272.95l-1060.02,53.17-728.56,26.51v-325.06c17.13,19.04,29.83,42.4,36.03,69.45,6.22-48.51,76.2-43.52,93.07-16.42,7.3-145.22,164.15-142.3,189.25-81.28-31.8-106.83,47.12-98.87,43.61-6.92,101.24-191.88,305.58-92.37,324.41,7.84,10.59-65.47,76.59-57.25,66.48,22.23,224.61-232.3,379.53-74.62,379.53-74.62,4.59-124.34,118.31-145.9,121.32,1.29,115.34-203.99,322.41-87.11,317.44,14.48,51.7-32.55,165.58-22.09,217.44,36.37Z"/>
  <path class="cls-5" d="M7000,1487.93v128.1l-902.28,39.53-610.92,19.42v-238.08c14.37,13.95,25.02,31.06,30.21,50.87,5.22-35.53,63.89-31.88,78.04-12.03,6.12-106.36,137.64-104.22,158.69-59.53-26.67-78.24,39.51-72.41,36.57-5.07,84.89-140.54,256.23-67.65,272.03,5.75,8.88-47.95,64.22-41.93,55.74,16.29,188.34-170.14,318.25-54.66,318.25-54.66,3.85-91.07,99.21-106.86,101.73.94,96.72-149.4,270.35-63.8,266.18,10.6,43.35-23.84,152.27,55.05,195.75,97.87Z"/>
  <path class="cls-5" d="M1561.11,1448.55s-8.68-83.44,40.94-80.33c49.62,3.12-40.94,80.33-40.94,80.33Z"/>
  <path class="cls-6" d="M3163.69,1540.88c112.29,8.63,225.22,19,336.31,32.6v426.52H0v-299.69"/>
  <path class="cls-6" d="M7000,1573.48v426.52h-3500v-426.52c1064.28,70.58,2105.01-113.93,3163.69-32.6,112.29,8.63,225.22,19,336.31,32.6Z"/>
  <path class="cls-6" d="M3500,1573.48v426.52H0v-426.52c1064.28,70.58,2105.01-113.93,3163.69-32.6,112.29,8.63,225.22,19,336.31,32.6Z"/>
  <path class="cls-4" d="M3500,1750.7v249.3H0v-249.3c1094.91,44.52,2189.4-94.63,3287.27-17.07,70.85,5,141.94,10.6,212.73,17.07Z"/>
  <path class="cls-4" d="M916.33,1628.14c-3.12-.84-2.64-4.3-1.72-6.65.96-3.67,1.94-7.34,3.43-10.83-2.26,1.22-4.48,2.51-6.68,3.84-2.24,1.83-6.17,3.37-7.75-.07-.93-3.53,1.17-7.16.96-10.76-1.96,2.58-3.82,5.23-5.46,8.03-1.15,1.67-1.77,4.28-4.08,4.62-1.48.23-2.88-.75-3.44-2.1-.65-3.1.52-6.37.68-9.51,1.36-10.72,3.07-21.39,5.08-32.01-5.5,7.98-9.75,16.77-13.18,25.81-1.17,3.3-2.34,6.6-3.31,9.96-.81,2.69-1.36,7.15-5.1,6.85-3.59-.8-3.45-6.26-4.92-9.05-1.67-4.63-3.33-9.3-5.63-13.66-.23,4.78-.28,9.57-.08,14.34.65,3.01-1,8.09-4.86,6.11-4.8-3.56-9.72-7.09-15.46-8.98,3.44,5.48,4.4,12.04,5.98,18.21,1.32,1.4.91,3.91-.82,4.82-3.49,1.86-5.45-2.4-5.68-5.28-1.45-5.77-2.07-11.44-5.77-15.97-1.18-1.3-2.41-2.57-3.84-3.59-2.09-1.54-1.18-5.19,1.45-5.44,1.53-.12,3.04-.01,4.56.13,6.61.79,12.77,3.94,18.2,7.67-.11-4.74,0-9.49.3-14.22.16-2.42-.05-5.74,2.56-6.94,7.77-2.9,12.01,14.15,14.37,19.4,3.74-11.44,8.74-22.5,15.39-32.54,2.27-2.96,4.22-6.38,7.13-8.73,3.2-1.76,6.02,1.1,5.78,4.38-1.3,11.62-4.1,23.1-5.41,34.75,7.18-11.7,13.59-3.14,11.48,6.98,3.64-2.18,7.68-4.25,11.4-6.03,2.1-1.37,5.4-.15,5.31,2.58-.38,3.67-2.68,6.89-3.79,10.38-.93,2.61-1.55,5.32-2.17,8.01-.33,2.68-1.44,6.41-4.89,5.49Z"/>
  <path class="cls-4" d="M205.56,1733.01c-2.96-.25-3.09-3.45-2.64-5.73.27-3.47.55-6.94,1.32-10.34-1.84,1.47-3.64,3-5.41,4.56-1.72,2.02-5.02,4.05-7.01,1.2-1.42-3.04-.12-6.65-.9-9.88-1.35,2.65-2.59,5.35-3.61,8.14-.77,1.69-.9,4.16-2.93,4.84-1.3.45-2.72-.21-3.45-1.33-1.1-2.69-.58-5.83-.95-8.7-.53-9.9-.73-19.82-.65-29.73-3.66,8.1-6.06,16.74-7.67,25.46-.52,3.17-1.04,6.34-1.36,9.54-.29,2.56-.06,6.68-3.48,7.02-3.37-.14-4.13-5.08-5.92-7.37-2.26-3.91-4.53-7.85-7.32-11.41.57,4.35,1.31,8.68,2.28,12.96,1.08,2.61.42,7.47-3.38,6.32-4.91-2.43-9.93-4.81-15.43-5.57,4,4.39,5.94,10.15,8.38,15.46,1.42,1.04,1.46,3.39.05,4.49-2.85,2.25-5.31-1.28-6-3.83-2.25-4.97-3.74-9.99-7.83-13.47-1.28-.98-2.59-1.93-4.06-2.61-2.14-1.05-1.92-4.49.42-5.15,1.36-.36,2.74-.51,4.14-.63,6.1-.37,12.18,1.47,17.69,3.94-.87-4.27-1.56-8.57-2.06-12.89-.25-2.21-.99-5.18,1.17-6.68,6.54-3.89,13.16,10.81,16.15,15.16,1.5-10.94,4.2-21.74,8.57-31.9,1.56-3.04,2.76-6.45,5.01-9.05,2.6-2.11,5.61.01,5.94,3.01.73,10.71.08,21.52.8,32.26,4.57-11.74,11.76-5.06,11.5,4.42,2.93-2.57,6.24-5.09,9.3-7.32,1.67-1.58,4.85-1.02,5.22,1.46.26,3.38-1.29,6.66-1.72,10-.41,2.51-.53,5.05-.65,7.59.14,2.48-.25,6.03-3.52,5.76Z"/>
  <path class="cls-4" d="M1486.92,1653.56c-2.83-.89-2.25-4.04-1.31-6.17,1.03-3.33,2.07-6.65,3.58-9.79-2.12,1.03-4.21,2.12-6.28,3.25-2.13,1.59-5.79,2.84-7.11-.38-.72-3.27,1.36-6.51,1.3-9.83-1.9,2.28-3.71,4.64-5.32,7.14-1.12,1.48-1.79,3.86-3.93,4.07-1.37.15-2.61-.8-3.07-2.06-.48-2.86.73-5.82,1-8.69,1.67-9.77,3.66-19.49,5.93-29.14-5.35,7.09-9.6,14.98-13.1,23.14-1.21,2.98-2.41,5.95-3.43,9-.85,2.44-1.53,6.5-4.94,6.07-3.26-.88-2.91-5.87-4.15-8.49-1.34-4.31-2.68-8.66-4.62-12.75-.4,4.37-.64,8.76-.64,13.14.47,2.78-1.24,7.38-4.69,5.41-4.26-3.46-8.62-6.88-13.81-8.84,2.93,5.16,3.55,11.21,4.76,16.93,1.15,1.33.68,3.62-.94,4.39-3.27,1.56-4.9-2.42-5-5.07-1.1-5.34-1.44-10.57-4.66-14.87-1.03-1.24-2.1-2.45-3.38-3.44-1.86-1.5-.88-4.81,1.54-4.93,1.4-.05,2.79.11,4.18.3,6.03.99,11.55,4.12,16.38,7.75.09-4.35.37-8.7.84-13.03.24-2.22.18-5.27,2.62-6.26,7.24-2.35,10.45,13.45,12.4,18.35,3.88-10.34,8.9-20.28,15.4-29.22,2.2-2.62,4.12-5.68,6.88-7.72,3.01-1.48,5.47,1.25,5.12,4.24-1.65,10.6-4.68,21.01-6.34,31.64,7.05-10.44,12.59-2.33,10.24,6.85,3.42-1.86,7.21-3.59,10.69-5.08,1.98-1.17,4.96.07,4.77,2.58-.49,3.35-2.73,6.21-3.89,9.37-.95,2.36-1.63,4.81-2.31,7.26-.41,2.45-1.57,5.82-4.7,4.84Z"/>
  <path class="cls-4" d="M2344.86,1653.56c-2.83-.89-2.25-4.04-1.31-6.17,1.03-3.33,2.07-6.65,3.58-9.79-2.12,1.03-4.21,2.12-6.28,3.25-2.13,1.59-5.79,2.84-7.11-.38-.72-3.27,1.36-6.51,1.3-9.83-1.9,2.28-3.71,4.64-5.32,7.14-1.12,1.48-1.79,3.86-3.93,4.07-1.37.15-2.61-.8-3.07-2.06-.48-2.86.73-5.82,1-8.69,1.67-9.77,3.66-19.49,5.93-29.14-5.35,7.09-9.6,14.98-13.1,23.14-1.21,2.98-2.41,5.95-3.43,9-.85,2.44-1.53,6.5-4.94,6.07-3.26-.88-2.91-5.87-4.15-8.49-1.34-4.31-2.68-8.66-4.62-12.75-.4,4.37-.64,8.76-.64,13.14.47,2.78-1.24,7.38-4.69,5.41-4.26-3.46-8.62-6.88-13.81-8.84,2.93,5.16,3.55,11.21,4.76,16.93,1.15,1.33.68,3.62-.94,4.39-3.27,1.56-4.9-2.42-5-5.07-1.1-5.34-1.44-10.57-4.66-14.87-1.03-1.24-2.1-2.45-3.38-3.44-1.86-1.5-.88-4.81,1.54-4.93,1.4-.05,2.79.11,4.18.3,6.03.99,11.55,4.12,16.38,7.75.09-4.35.37-8.7.84-13.03.24-2.22.18-5.27,2.62-6.26,7.24-2.35,10.45,13.45,12.4,18.35,3.88-10.34,8.9-20.28,15.4-29.22,2.2-2.62,4.12-5.68,6.88-7.72,3.01-1.48,5.47,1.25,5.12,4.24-1.65,10.6-4.68,21.01-6.34,31.64,7.05-10.44,12.59-2.33,10.24,6.85,3.42-1.86,7.21-3.59,10.69-5.08,1.98-1.17,4.96.07,4.77,2.58-.49,3.35-2.73,6.21-3.89,9.37-.95,2.36-1.63,4.81-2.31,7.26-.41,2.45-1.57,5.82-4.7,4.84Z"/>
  <path class="cls-4" d="M3245.4,1653.56c-2.83-.89-2.25-4.04-1.31-6.17,1.03-3.33,2.07-6.65,3.58-9.79-2.12,1.03-4.21,2.12-6.28,3.25-2.13,1.59-5.79,2.84-7.11-.38-.72-3.27,1.36-6.51,1.3-9.83-1.9,2.28-3.71,4.64-5.32,7.14-1.12,1.48-1.79,3.86-3.93,4.07-1.37.15-2.61-.8-3.07-2.06-.48-2.86.73-5.82,1-8.69,1.67-9.77,3.66-19.49,5.93-29.14-5.35,7.09-9.6,14.98-13.1,23.14-1.21,2.98-2.41,5.95-3.43,9-.85,2.44-1.53,6.5-4.94,6.07-3.26-.88-2.91-5.87-4.15-8.49-1.34-4.31-2.68-8.66-4.62-12.75-.4,4.37-.64,8.76-.64,13.14.47,2.78-1.24,7.38-4.69,5.41-4.26-3.46-8.62-6.88-13.81-8.84,2.93,5.16,3.55,11.21,4.76,16.93,1.15,1.33.68,3.62-.94,4.39-3.27,1.56-4.9-2.42-5-5.07-1.1-5.34-1.44-10.57-4.66-14.87-1.03-1.24-2.1-2.45-3.38-3.44-1.86-1.5-.88-4.81,1.54-4.93,1.4-.05,2.79.11,4.18.3,6.03.99,11.55,4.12,16.38,7.75.09-4.35.37-8.7.84-13.03.24-2.22.18-5.27,2.62-6.26,7.24-2.35,10.45,13.45,12.4,18.35,3.88-10.34,8.9-20.28,15.4-29.22,2.2-2.62,4.12-5.68,6.88-7.72,3.01-1.48,5.47,1.25,5.12,4.24-1.65,10.6-4.68,21.01-6.34,31.64,7.05-10.44,12.59-2.33,10.24,6.85,3.42-1.86,7.21-3.59,10.69-5.08,1.98-1.17,4.96.07,4.77,2.58-.49,3.35-2.73,6.21-3.89,9.37-.95,2.36-1.63,4.81-2.31,7.26-.41,2.45-1.57,5.82-4.7,4.84Z"/>
  <path class="cls-4" d="M2780.57,1591.27c-2.83-.89-2.25-4.04-1.31-6.17,1.03-3.33,2.07-6.65,3.58-9.79-2.12,1.03-4.21,2.12-6.28,3.25-2.13,1.59-5.79,2.84-7.11-.38-.72-3.27,1.36-6.51,1.3-9.83-1.9,2.28-3.71,4.64-5.32,7.14-1.12,1.48-1.79,3.86-3.93,4.07-1.37.15-2.61-.8-3.07-2.06-.48-2.86.73-5.82,1-8.69,1.67-9.77,3.66-19.49,5.93-29.14-5.35,7.09-9.6,14.98-13.1,23.14-1.21,2.98-2.41,5.95-3.43,9-.85,2.44-1.53,6.5-4.94,6.07-3.26-.88-2.91-5.87-4.15-8.49-1.34-4.31-2.68-8.66-4.62-12.75-.4,4.37-.64,8.76-.64,13.14.47,2.78-1.24,7.38-4.69,5.41-4.26-3.46-8.62-6.88-13.81-8.84,2.93,5.16,3.55,11.21,4.76,16.93,1.15,1.33.68,3.62-.94,4.39-3.27,1.56-4.9-2.42-5-5.07-1.1-5.34-1.44-10.57-4.66-14.87-1.03-1.24-2.1-2.45-3.38-3.44-1.86-1.5-.88-4.81,1.54-4.93,1.4-.05,2.79.11,4.18.3,6.03.99,11.55,4.12,16.38,7.75.09-4.35.37-8.7.84-13.03.24-2.22.18-5.27,2.62-6.26,7.24-2.35,10.45,13.45,12.4,18.35,3.88-10.34,8.9-20.28,15.4-29.22,2.2-2.62,4.12-5.68,6.88-7.72,3.01-1.48,5.47,1.25,5.12,4.24-1.65,10.6-4.68,21.01-6.34,31.64,7.05-10.44,12.59-2.33,10.24,6.85,3.42-1.86,7.21-3.59,10.69-5.08,1.98-1.17,4.96.07,4.77,2.58-.49,3.35-2.73,6.21-3.89,9.37-.95,2.36-1.63,4.81-2.31,7.26-.41,2.45-1.57,5.82-4.7,4.84Z"/>
  <path class="cls-4" d="M4122.68,1740.6c-2.83-.89-2.25-4.04-1.31-6.17,1.03-3.33,2.07-6.65,3.58-9.79-2.12,1.03-4.21,2.12-6.28,3.25-2.13,1.59-5.79,2.84-7.11-.38-.72-3.27,1.36-6.51,1.3-9.83-1.9,2.28-3.71,4.64-5.32,7.14-1.12,1.48-1.79,3.86-3.93,4.07-1.37.15-2.61-.8-3.07-2.06-.48-2.86.73-5.82,1-8.69,1.67-9.77,3.66-19.49,5.93-29.14-5.35,7.09-9.6,14.98-13.1,23.14-1.21,2.98-2.41,5.95-3.43,9-.85,2.44-1.53,6.5-4.94,6.07-3.26-.88-2.91-5.87-4.15-8.49-1.34-4.31-2.68-8.66-4.62-12.75-.4,4.37-.64,8.76-.64,13.14.47,2.78-1.24,7.38-4.69,5.41-4.26-3.46-8.62-6.88-13.81-8.84,2.93,5.16,3.55,11.21,4.76,16.93,1.15,1.33.68,3.62-.94,4.39-3.27,1.56-4.9-2.42-5-5.07-1.1-5.34-1.44-10.57-4.66-14.87-1.03-1.24-2.1-2.45-3.38-3.44-1.86-1.5-.88-4.81,1.54-4.93,1.4-.05,2.79.11,4.18.3,6.03.99,11.55,4.12,16.38,7.75.09-4.35.37-8.7.84-13.03.24-2.22.18-5.27,2.62-6.26,7.24-2.35,10.45,13.45,12.4,18.35,3.88-10.34,8.9-20.28,15.4-29.22,2.2-2.62,4.12-5.68,6.88-7.72,3.01-1.48,5.47,1.25,5.12,4.24-1.65,10.6-4.68,21.01-6.34,31.64,7.05-10.44,12.59-2.33,10.24,6.85,3.42-1.86,7.21-3.59,10.69-5.08,1.98-1.17,4.96.07,4.77,2.58-.49,3.35-2.73,6.21-3.89,9.37-.95,2.36-1.63,4.81-2.31,7.26-.41,2.45-1.57,5.82-4.7,4.84Z"/>
  <path class="cls-4" d="M5615.75,1622.41c-2.83-.89-2.25-4.04-1.31-6.17,1.03-3.33,2.07-6.65,3.58-9.79-2.12,1.03-4.21,2.12-6.28,3.25-2.13,1.59-5.79,2.84-7.11-.38-.72-3.27,1.36-6.51,1.3-9.83-1.9,2.28-3.71,4.64-5.32,7.14-1.12,1.48-1.79,3.86-3.93,4.07-1.37.15-2.61-.8-3.07-2.06-.48-2.86.73-5.82,1-8.69,1.67-9.77,3.66-19.49,5.93-29.14-5.35,7.09-9.6,14.98-13.1,23.14-1.21,2.98-2.41,5.95-3.43,9-.85,2.44-1.53,6.5-4.94,6.07-3.26-.88-2.91-5.87-4.15-8.49-1.34-4.31-2.68-8.66-4.62-12.75-.4,4.37-.64,8.76-.64,13.14.47,2.78-1.24,7.38-4.69,5.41-4.26-3.46-8.62-6.88-13.81-8.84,2.93,5.16,3.55,11.21,4.76,16.93,1.15,1.33.68,3.62-.94,4.39-3.27,1.56-4.9-2.42-5-5.07-1.1-5.34-1.44-10.57-4.66-14.87-1.03-1.24-2.1-2.45-3.38-3.44-1.86-1.5-.88-4.81,1.54-4.93,1.4-.05,2.79.11,4.18.3,6.03.99,11.55,4.12,16.38,7.75.09-4.35.37-8.7.84-13.03.24-2.22.18-5.27,2.62-6.26,7.24-2.35,10.45,13.45,12.4,18.35,3.88-10.34,8.9-20.28,15.4-29.22,2.2-2.62,4.12-5.68,6.88-7.72,3.01-1.48,5.47,1.25,5.12,4.24-1.65,10.6-4.68,21.01-6.34,31.64,7.05-10.44,12.59-2.33,10.24,6.85,3.42-1.86,7.21-3.59,10.69-5.08,1.98-1.17,4.96.07,4.77,2.58-.49,3.35-2.73,6.21-3.89,9.37-.95,2.36-1.63,4.81-2.31,7.26-.41,2.45-1.57,5.82-4.7,4.84Z"/>
  <path class="cls-4" d="M6402.95,1622.41c-2.83-.89-2.25-4.04-1.31-6.17,1.03-3.33,2.07-6.65,3.58-9.79-2.12,1.03-4.21,2.12-6.28,3.25-2.13,1.59-5.79,2.84-7.11-.38-.72-3.27,1.36-6.51,1.3-9.83-1.9,2.28-3.71,4.64-5.32,7.14-1.12,1.48-1.79,3.86-3.93,4.07-1.37.15-2.61-.8-3.07-2.06-.48-2.86.73-5.82,1-8.69,1.67-9.77,3.66-19.49,5.93-29.14-5.35,7.09-9.6,14.98-13.1,23.14-1.21,2.98-2.41,5.95-3.43,9-.85,2.44-1.53,6.5-4.94,6.07-3.26-.88-2.91-5.87-4.15-8.49-1.34-4.31-2.68-8.66-4.62-12.75-.4,4.37-.64,8.76-.64,13.14.47,2.78-1.24,7.38-4.69,5.41-4.26-3.46-8.62-6.88-13.81-8.84,2.93,5.16,3.55,11.21,4.76,16.93,1.15,1.33.68,3.62-.94,4.39-3.27,1.56-4.9-2.42-5-5.07-1.1-5.34-1.44-10.57-4.66-14.87-1.03-1.24-2.1-2.45-3.38-3.44-1.86-1.5-.88-4.81,1.54-4.93,1.4-.05,2.79.11,4.18.3,6.03.99,11.55,4.12,16.38,7.75.09-4.35.37-8.7.84-13.03.24-2.22.18-5.27,2.62-6.26,7.24-2.35,10.45,13.45,12.4,18.35,3.88-10.34,8.9-20.28,15.4-29.22,2.2-2.62,4.12-5.68,6.88-7.72,3.01-1.48,5.47,1.25,5.12,4.24-1.65,10.6-4.68,21.01-6.34,31.64,7.05-10.44,12.59-2.33,10.24,6.85,3.42-1.86,7.21-3.59,10.69-5.08,1.98-1.17,4.96.07,4.77,2.58-.49,3.35-2.73,6.21-3.89,9.37-.95,2.36-1.63,4.81-2.31,7.26-.41,2.45-1.57,5.82-4.7,4.84Z"/>
  <path class="cls-4" d="M4961.14,1684.71c-2.83-.89-2.25-4.04-1.31-6.17,1.03-3.33,2.07-6.65,3.58-9.79-2.12,1.03-4.21,2.12-6.28,3.25-2.13,1.59-5.79,2.84-7.11-.38-.72-3.27,1.36-6.51,1.3-9.83-1.9,2.28-3.71,4.64-5.32,7.14-1.12,1.48-1.79,3.86-3.93,4.07-1.37.15-2.61-.8-3.07-2.06-.48-2.86.73-5.82,1-8.69,1.67-9.77,3.66-19.49,5.93-29.14-5.35,7.09-9.6,14.98-13.1,23.14-1.21,2.98-2.41,5.95-3.43,9-.85,2.44-1.53,6.5-4.94,6.07-3.26-.88-2.91-5.87-4.15-8.49-1.34-4.31-2.68-8.66-4.62-12.75-.4,4.37-.64,8.76-.64,13.14.47,2.78-1.24,7.38-4.69,5.41-4.26-3.46-8.62-6.88-13.81-8.84,2.93,5.16,3.55,11.21,4.76,16.93,1.15,1.33.68,3.62-.94,4.39-3.27,1.56-4.9-2.42-5-5.07-1.1-5.34-1.44-10.57-4.66-14.87-1.03-1.24-2.1-2.45-3.38-3.44-1.86-1.5-.88-4.81,1.54-4.93,1.4-.05,2.79.11,4.18.3,6.03.99,11.55,4.12,16.38,7.75.09-4.35.37-8.7.84-13.03.24-2.22.18-5.27,2.62-6.26,7.24-2.35,10.45,13.45,12.4,18.35,3.88-10.34,8.9-20.28,15.4-29.22,2.2-2.62,4.12-5.68,6.88-7.72,3.01-1.48,5.47,1.25,5.12,4.24-1.65,10.6-4.68,21.01-6.34,31.64,7.05-10.44,12.59-2.33,10.24,6.85,3.42-1.86,7.21-3.59,10.69-5.08,1.98-1.17,4.96.07,4.77,2.58-.49,3.35-2.73,6.21-3.89,9.37-.95,2.36-1.63,4.81-2.31,7.26-.41,2.45-1.57,5.82-4.7,4.84Z"/>
  <path class="cls-6" d="M6421.79,1832.56c-2.83-.89-2.25-4.04-1.31-6.17,1.03-3.33,2.07-6.65,3.58-9.79-2.12,1.03-4.21,2.12-6.28,3.25-2.13,1.59-5.79,2.84-7.11-.38-.72-3.27,1.36-6.51,1.3-9.83-1.9,2.28-3.71,4.64-5.32,7.14-1.12,1.48-1.79,3.86-3.93,4.07-1.37.15-2.61-.8-3.07-2.06-.48-2.86.73-5.82,1-8.69,1.67-9.77,3.66-19.49,5.93-29.14-5.35,7.09-9.6,14.98-13.1,23.14-1.21,2.98-2.41,5.95-3.43,9-.85,2.44-1.53,6.5-4.94,6.07-3.26-.88-2.91-5.87-4.15-8.49-1.34-4.31-2.68-8.66-4.62-12.75-.4,4.37-.64,8.76-.64,13.14.47,2.78-1.24,7.38-4.69,5.41-4.26-3.46-8.62-6.88-13.81-8.84,2.93,5.16,3.55,11.21,4.76,16.93,1.15,1.33.68,3.62-.94,4.39-3.27,1.56-4.9-2.42-5-5.07-1.1-5.34-1.44-10.57-4.66-14.87-1.03-1.24-2.1-2.45-3.38-3.44-1.86-1.5-.88-4.81,1.54-4.93,1.4-.05,2.79.11,4.18.3,6.03.99,11.55,4.12,16.38,7.75.09-4.35.37-8.7.84-13.03.24-2.22.18-5.27,2.62-6.26,7.24-2.35,10.45,13.45,12.4,18.35,3.88-10.34,8.9-20.28,15.4-29.22,2.2-2.62,4.12-5.68,6.88-7.72,3.01-1.48,5.47,1.25,5.12,4.24-1.65,10.6-4.68,21.01-6.34,31.64,7.05-10.44,12.59-2.33,10.24,6.85,3.42-1.86,7.21-3.59,10.69-5.08,1.98-1.17,4.96.07,4.77,2.58-.49,3.35-2.73,6.21-3.89,9.37-.95,2.36-1.63,4.81-2.31,7.26-.41,2.45-1.57,5.82-4.7,4.84Z"/>
  <path class="cls-4" d="M7000,1749.48v249.3h-3513.42v-249.3c1099.11,44.52,2197.8-94.63,3299.88-17.07,71.12,5,142.48,10.6,213.55,17.07Z"/>
  <path class="cls-1" d="M3500,1934.53v249.3H0v-249.3c1094.91,44.52,2189.4-94.63,3287.27-17.07,70.85,5,141.94,10.6,212.73,17.07Z"/>
  <path class="cls-1" d="M7000,1933.31v249.3h-3513.42v-249.3c1099.11,44.52,2197.8-94.63,3299.88-17.07,71.12,5,142.48,10.6,213.55,17.07Z"/>
  <path class="cls-6" d="M6464.65,1843.96c-2.83-.89-2.25-4.04-1.31-6.17,1.03-3.33,2.07-6.65,3.58-9.79-2.12,1.03-4.21,2.12-6.28,3.25-2.13,1.59-5.79,2.84-7.11-.38-.72-3.27,1.36-6.51,1.3-9.83-1.9,2.28-3.71,4.64-5.32,7.14-1.12,1.48-1.79,3.86-3.93,4.07-1.37.15-2.61-.8-3.07-2.06-.48-2.86.73-5.82,1-8.69,1.67-9.77,3.66-19.49,5.93-29.14-5.35,7.09-9.6,14.98-13.1,23.14-1.21,2.98-2.41,5.95-3.43,9-.85,2.44-1.53,6.5-4.94,6.07-3.26-.88-2.91-5.87-4.15-8.49-1.34-4.31-2.68-8.66-4.62-12.75-.4,4.37-.64,8.76-.64,13.14.47,2.78-1.24,7.38-4.69,5.41-4.26-3.46-8.62-6.88-13.81-8.84,2.93,5.16,3.55,11.21,4.76,16.93,1.15,1.33.68,3.62-.94,4.39-3.27,1.56-4.9-2.42-5-5.07-1.1-5.34-1.44-10.57-4.66-14.87-1.03-1.24-2.1-2.45-3.38-3.44-1.86-1.5-.88-4.81,1.54-4.93,1.4-.05,2.79.11,4.18.3,6.03.99,11.55,4.12,16.38,7.75.09-4.35.37-8.7.84-13.03.24-2.22.18-5.27,2.62-6.26,7.24-2.35,10.45,13.45,12.4,18.35,3.88-10.34,8.9-20.28,15.4-29.22,2.2-2.62,4.12-5.68,6.88-7.72,3.01-1.48,5.47,1.25,5.12,4.24-1.65,10.6-4.68,21.01-6.34,31.64,7.05-10.44,12.59-2.33,10.24,6.85,3.42-1.86,7.21-3.59,10.69-5.08,1.98-1.17,4.96.07,4.77,2.58-.49,3.35-2.73,6.21-3.89,9.37-.95,2.36-1.63,4.81-2.31,7.26-.41,2.45-1.57,5.82-4.7,4.84Z"/>
  <path class="cls-6" d="M5163.35,1863.71c-2.83-.89-2.25-4.04-1.31-6.17,1.03-3.33,2.07-6.65,3.58-9.79-2.12,1.03-4.21,2.12-6.28,3.25-2.13,1.59-5.79,2.84-7.11-.38-.72-3.27,1.36-6.51,1.3-9.83-1.9,2.28-3.71,4.64-5.32,7.14-1.12,1.48-1.79,3.86-3.93,4.07-1.37.15-2.61-.8-3.07-2.06-.48-2.86.73-5.82,1-8.69,1.67-9.77,3.66-19.49,5.93-29.14-5.35,7.09-9.6,14.98-13.1,23.14-1.21,2.98-2.41,5.95-3.43,9-.85,2.44-1.53,6.5-4.94,6.07-3.26-.88-2.91-5.87-4.15-8.49-1.34-4.31-2.68-8.66-4.62-12.75-.4,4.37-.64,8.76-.64,13.14.47,2.78-1.24,7.38-4.69,5.41-4.26-3.46-8.62-6.88-13.81-8.84,2.93,5.16,3.55,11.21,4.76,16.93,1.15,1.33.68,3.62-.94,4.39-3.27,1.56-4.9-2.42-5-5.07-1.1-5.34-1.44-10.57-4.66-14.87-1.03-1.24-2.1-2.45-3.38-3.44-1.86-1.5-.88-4.81,1.54-4.93,1.4-.05,2.79.11,4.18.3,6.03.99,11.55,4.12,16.38,7.75.09-4.35.37-8.7.84-13.03.24-2.22.18-5.27,2.62-6.26,7.24-2.35,10.45,13.45,12.4,18.35,3.88-10.34,8.9-20.28,15.4-29.22,2.2-2.62,4.12-5.68,6.88-7.72,3.01-1.48,5.47,1.25,5.12,4.24-1.65,10.6-4.68,21.01-6.34,31.64,7.05-10.44,12.59-2.33,10.24,6.85,3.42-1.86,7.21-3.59,10.69-5.08,1.98-1.17,4.96.07,4.77,2.58-.49,3.35-2.73,6.21-3.89,9.37-.95,2.36-1.63,4.81-2.31,7.26-.41,2.45-1.57,5.82-4.7,4.84Z"/>
  <path class="cls-6" d="M4450.15,1863.71c-2.83-.89-2.25-4.04-1.31-6.17,1.03-3.33,2.07-6.65,3.58-9.79-2.12,1.03-4.21,2.12-6.28,3.25-2.13,1.59-5.79,2.84-7.11-.38-.72-3.27,1.36-6.51,1.3-9.83-1.9,2.28-3.71,4.64-5.32,7.14-1.12,1.48-1.79,3.86-3.93,4.07-1.37.15-2.61-.8-3.07-2.06-.48-2.86.73-5.82,1-8.69,1.67-9.77,3.66-19.49,5.93-29.14-5.35,7.09-9.6,14.98-13.1,23.14-1.21,2.98-2.41,5.95-3.43,9-.85,2.44-1.53,6.5-4.94,6.07-3.26-.88-2.91-5.87-4.15-8.49-1.34-4.31-2.68-8.66-4.62-12.75-.4,4.37-.64,8.76-.64,13.14.47,2.78-1.24,7.38-4.69,5.41-4.26-3.46-8.62-6.88-13.81-8.84,2.93,5.16,3.55,11.21,4.76,16.93,1.15,1.33.68,3.62-.94,4.39-3.27,1.56-4.9-2.42-5-5.07-1.1-5.34-1.44-10.57-4.66-14.87-1.03-1.24-2.1-2.45-3.38-3.44-1.86-1.5-.88-4.81,1.54-4.93,1.4-.05,2.79.11,4.18.3,6.03.99,11.55,4.12,16.38,7.75.09-4.35.37-8.7.84-13.03.24-2.22.18-5.27,2.62-6.26,7.24-2.35,10.45,13.45,12.4,18.35,3.88-10.34,8.9-20.28,15.4-29.22,2.2-2.62,4.12-5.68,6.88-7.72,3.01-1.48,5.47,1.25,5.12,4.24-1.65,10.6-4.68,21.01-6.34,31.64,7.05-10.44,12.59-2.33,10.24,6.85,3.42-1.86,7.21-3.59,10.69-5.08,1.98-1.17,4.96.07,4.77,2.58-.49,3.35-2.73,6.21-3.89,9.37-.95,2.36-1.63,4.81-2.31,7.26-.41,2.45-1.57,5.82-4.7,4.84Z"/>
  <path class="cls-6" d="M3561.38,1843.96c-2.83-.89-2.25-4.04-1.31-6.17,1.03-3.33,2.07-6.65,3.58-9.79-2.12,1.03-4.21,2.12-6.28,3.25-2.13,1.59-5.79,2.84-7.11-.38-.72-3.27,1.36-6.51,1.3-9.83-1.9,2.28-3.71,4.64-5.32,7.14-1.12,1.48-1.79,3.86-3.93,4.07-1.37.15-2.61-.8-3.07-2.06-.48-2.86.73-5.82,1-8.69,1.67-9.77,3.66-19.49,5.93-29.14-5.35,7.09-9.6,14.98-13.1,23.14-1.21,2.98-2.41,5.95-3.43,9-.85,2.44-1.53,6.5-4.94,6.07-3.26-.88-2.91-5.87-4.15-8.49-1.34-4.31-2.68-8.66-4.62-12.75-.4,4.37-.64,8.76-.64,13.14.47,2.78-1.24,7.38-4.69,5.41-4.26-3.46-8.62-6.88-13.81-8.84,2.93,5.16,3.55,11.21,4.76,16.93,1.15,1.33.68,3.62-.94,4.39-3.27,1.56-4.9-2.42-5-5.07-1.1-5.34-1.44-10.57-4.66-14.87-1.03-1.24-2.1-2.45-3.38-3.44-1.86-1.5-.88-4.81,1.54-4.93,1.4-.05,2.79.11,4.18.3,6.03.99,11.55,4.12,16.38,7.75.09-4.35.37-8.7.84-13.03.24-2.22.18-5.27,2.62-6.26,7.24-2.35,10.45,13.45,12.4,18.35,3.88-10.34,8.9-20.28,15.4-29.22,2.2-2.62,4.12-5.68,6.88-7.72,3.01-1.48,5.47,1.25,5.12,4.24-1.65,10.6-4.68,21.01-6.34,31.64,7.05-10.44,12.59-2.33,10.24,6.85,3.42-1.86,7.21-3.59,10.69-5.08,1.98-1.17,4.96.07,4.77,2.58-.49,3.35-2.73,6.21-3.89,9.37-.95,2.36-1.63,4.81-2.31,7.26-.41,2.45-1.57,5.82-4.7,4.84Z"/>
  <path class="cls-6" d="M2694.86,1812.81c-2.83-.89-2.25-4.04-1.31-6.17,1.03-3.33,2.07-6.65,3.58-9.79-2.12,1.03-4.21,2.12-6.28,3.25-2.13,1.59-5.79,2.84-7.11-.38-.72-3.27,1.36-6.51,1.3-9.83-1.9,2.28-3.71,4.64-5.32,7.14-1.12,1.48-1.79,3.86-3.93,4.07-1.37.15-2.61-.8-3.07-2.06-.48-2.86.73-5.82,1-8.69,1.67-9.77,3.66-19.49,5.93-29.14-5.35,7.09-9.6,14.98-13.1,23.14-1.21,2.98-2.41,5.95-3.43,9-.85,2.44-1.53,6.5-4.94,6.07-3.26-.88-2.91-5.87-4.15-8.49-1.34-4.31-2.68-8.66-4.62-12.75-.4,4.37-.64,8.76-.64,13.14.47,2.78-1.24,7.38-4.69,5.41-4.26-3.46-8.62-6.88-13.81-8.84,2.93,5.16,3.55,11.21,4.76,16.93,1.15,1.33.68,3.62-.94,4.39-3.27,1.56-4.9-2.42-5-5.07-1.1-5.34-1.44-10.57-4.66-14.87-1.03-1.24-2.1-2.45-3.38-3.44-1.86-1.5-.88-4.81,1.54-4.93,1.4-.05,2.79.11,4.18.3,6.03.99,11.55,4.12,16.38,7.75.09-4.35.37-8.7.84-13.03.24-2.22.18-5.27,2.62-6.26,7.24-2.35,10.45,13.45,12.4,18.35,3.88-10.34,8.9-20.28,15.4-29.22,2.2-2.62,4.12-5.68,6.88-7.72,3.01-1.48,5.47,1.25,5.12,4.24-1.65,10.6-4.68,21.01-6.34,31.64,7.05-10.44,12.59-2.33,10.24,6.85,3.42-1.86,7.21-3.59,10.69-5.08,1.98-1.17,4.96.07,4.77,2.58-.49,3.35-2.73,6.21-3.89,9.37-.95,2.36-1.63,4.81-2.31,7.26-.41,2.45-1.57,5.82-4.7,4.84Z"/>
  <path class="cls-6" d="M1912.03,1812.81c-2.83-.89-2.25-4.04-1.31-6.17,1.03-3.33,2.07-6.65,3.58-9.79-2.12,1.03-4.21,2.12-6.28,3.25-2.13,1.59-5.79,2.84-7.11-.38-.72-3.27,1.36-6.51,1.3-9.83-1.9,2.28-3.71,4.64-5.32,7.14-1.12,1.48-1.79,3.86-3.93,4.07-1.37.15-2.61-.8-3.07-2.06-.48-2.86.73-5.82,1-8.69,1.67-9.77,3.66-19.49,5.93-29.14-5.35,7.09-9.6,14.98-13.1,23.14-1.21,2.98-2.41,5.95-3.43,9-.85,2.44-1.53,6.5-4.94,6.07-3.26-.88-2.91-5.87-4.15-8.49-1.34-4.31-2.68-8.66-4.62-12.75-.4,4.37-.64,8.76-.64,13.14.47,2.78-1.24,7.38-4.69,5.41-4.26-3.46-8.62-6.88-13.81-8.84,2.93,5.16,3.55,11.21,4.76,16.93,1.15,1.33.68,3.62-.94,4.39-3.27,1.56-4.9-2.42-5-5.07-1.1-5.34-1.44-10.57-4.66-14.87-1.03-1.24-2.1-2.45-3.38-3.44-1.86-1.5-.88-4.81,1.54-4.93,1.4-.05,2.79.11,4.18.3,6.03.99,11.55,4.12,16.38,7.75.09-4.35.37-8.7.84-13.03.24-2.22.18-5.27,2.62-6.26,7.24-2.35,10.45,13.45,12.4,18.35,3.88-10.34,8.9-20.28,15.4-29.22,2.2-2.62,4.12-5.68,6.88-7.72,3.01-1.48,5.47,1.25,5.12,4.24-1.65,10.6-4.68,21.01-6.34,31.64,7.05-10.44,12.59-2.33,10.24,6.85,3.42-1.86,7.21-3.59,10.69-5.08,1.98-1.17,4.96.07,4.77,2.58-.49,3.35-2.73,6.21-3.89,9.37-.95,2.36-1.63,4.81-2.31,7.26-.41,2.45-1.57,5.82-4.7,4.84Z"/>
  <path class="cls-6" d="M633.36,1875.11c-2.83-.89-2.25-4.04-1.31-6.17,1.03-3.33,2.07-6.65,3.58-9.79-2.12,1.03-4.21,2.12-6.28,3.25-2.13,1.59-5.79,2.84-7.11-.38-.72-3.27,1.36-6.51,1.3-9.83-1.9,2.28-3.71,4.64-5.32,7.14-1.12,1.48-1.79,3.86-3.93,4.07-1.37.15-2.61-.8-3.07-2.06-.48-2.86.73-5.82,1-8.69,1.67-9.77,3.66-19.49,5.93-29.14-5.35,7.09-9.6,14.98-13.1,23.14-1.21,2.98-2.41,5.95-3.43,9-.85,2.44-1.53,6.5-4.94,6.07-3.26-.88-2.91-5.87-4.15-8.49-1.34-4.31-2.68-8.66-4.62-12.75-.4,4.37-.64,8.76-.64,13.14.47,2.78-1.24,7.38-4.69,5.41-4.26-3.46-8.62-6.88-13.81-8.84,2.93,5.16,3.55,11.21,4.76,16.93,1.15,1.33.68,3.62-.94,4.39-3.27,1.56-4.9-2.42-5-5.07-1.1-5.34-1.44-10.57-4.66-14.87-1.03-1.24-2.1-2.45-3.38-3.44-1.86-1.5-.88-4.81,1.54-4.93,1.4-.05,2.79.11,4.18.3,6.03.99,11.55,4.12,16.38,7.75.09-4.35.37-8.7.84-13.03.24-2.22.18-5.27,2.62-6.26,7.24-2.35,10.45,13.45,12.4,18.35,3.88-10.34,8.9-20.28,15.4-29.22,2.2-2.62,4.12-5.68,6.88-7.72,3.01-1.48,5.47,1.25,5.12,4.24-1.65,10.6-4.68,21.01-6.34,31.64,7.05-10.44,12.59-2.33,10.24,6.85,3.42-1.86,7.21-3.59,10.69-5.08,1.98-1.17,4.96.07,4.77,2.58-.49,3.35-2.73,6.21-3.89,9.37-.95,2.36-1.63,4.81-2.31,7.26-.41,2.45-1.57,5.82-4.7,4.84Z"/>
  <path class="cls-6" d="M5920.12,1801.41c-2.83-.89-2.25-4.04-1.31-6.17,1.03-3.33,2.07-6.65,3.58-9.79-2.12,1.03-4.21,2.12-6.28,3.25-2.13,1.59-5.79,2.84-7.11-.38-.72-3.27,1.36-6.51,1.3-9.83-1.9,2.28-3.71,4.64-5.32,7.14-1.12,1.48-1.79,3.86-3.93,4.07-1.37.15-2.61-.8-3.07-2.06-.48-2.86.73-5.82,1-8.69,1.67-9.77,3.66-19.49,5.93-29.14-5.35,7.09-9.6,14.98-13.1,23.14-1.21,2.98-2.41,5.95-3.43,9-.85,2.44-1.53,6.5-4.94,6.07-3.26-.88-2.91-5.87-4.15-8.49-1.34-4.31-2.68-8.66-4.62-12.75-.4,4.37-.64,8.76-.64,13.14.47,2.78-1.24,7.38-4.69,5.41-4.26-3.46-8.62-6.88-13.81-8.84,2.93,5.16,3.55,11.21,4.76,16.93,1.15,1.33.68,3.62-.94,4.39-3.27,1.56-4.9-2.42-5-5.07-1.1-5.34-1.44-10.57-4.66-14.87-1.03-1.24-2.1-2.45-3.38-3.44-1.86-1.5-.88-4.81,1.54-4.93,1.4-.05,2.79.11,4.18.3,6.03.99,11.55,4.12,16.38,7.75.09-4.35.37-8.7.84-13.03.24-2.22.18-5.27,2.62-6.26,7.24-2.35,10.45,13.45,12.4,18.35,3.88-10.34,8.9-20.28,15.4-29.22,2.2-2.62,4.12-5.68,6.88-7.72,3.01-1.48,5.47,1.25,5.12,4.24-1.65,10.6-4.68,21.01-6.34,31.64,7.05-10.44,12.59-2.33,10.24,6.85,3.42-1.86,7.21-3.59,10.69-5.08,1.98-1.17,4.96.07,4.77,2.58-.49,3.35-2.73,6.21-3.89,9.37-.95,2.36-1.63,4.81-2.31,7.26-.41,2.45-1.57,5.82-4.7,4.84Z"/>
</svg>